<svg width="36" height="36" viewBox="0 0 36 36" fill="none" xmlns="http://www.w3.org/2000/svg">
<path d="M30.173 0.171387H0V30.3444C0 33.3751 2.45721 35.8281 5.48372 35.8281H35.6567V5.65511C35.6567 2.6286 33.1995 0.171387 30.173 0.171387ZM28.0549 27.41C26.1335 27.41 24.974 26.5602 24.2707 24.7351L21.667 17.8867C21.9809 17.9621 22.3702 17.9788 22.7386 17.9788C24.346 17.9788 25.2293 17.4263 25.2293 16.4091C25.2293 15.3919 24.5093 14.9523 23.0316 14.9523H21.3321L16.5726 27.41H9.87488C8.65674 27.41 7.95349 26.8951 7.51395 25.7691L3.30698 14.9565H7.81116C9.0293 14.9565 9.76605 15.4923 10.1553 16.6351L12.0181 22.1356H12.7549L16.9451 10.6198H25.0284C29.0135 10.6198 31.2279 12.5035 31.2279 15.8774C31.2279 17.7026 30.3237 19.2179 28.6619 20.1388C28.9005 20.6202 29.1977 21.3193 29.6414 22.4998C30.8428 25.6728 31.5628 26.6523 32.3163 27.41H28.0549Z" fill="white"/>
</svg>
